<?xml version="1.0" encoding="utf-8"?>
<!-- Generator: Adobe Illustrator 27.7.0, SVG Export Plug-In . SVG Version: 6.00 Build 0)  -->
<svg version="1.1" id="_레이어_1" xmlns="http://www.w3.org/2000/svg" xmlns:xlink="http://www.w3.org/1999/xlink" x="0px"
	 y="0px" viewBox="0 0 400 512" style="enable-background:new 0 0 400 512;" xml:space="preserve">
<style type="text/css">
	.st0{fill:#96CC00;}
	.st1{enable-background:new    ;}
	.st2{fill:#FFFFFF;}
</style>
<polygon class="st0" points="0,0 0,419.7 199.8,512 400,419.7 400,0 "/>
<g class="st1">
	<path class="st2" d="M293.2,239.1c0,15.6-2.8,29.1-8.3,40.5c-5.5,11.4-12.9,20.8-22.1,28.3c-9.2,7.4-19.7,13-31.5,16.7
		c-11.8,3.7-23.9,5.6-36.4,5.6c-11.5,0-22.5-1.5-32.9-4.5c-10.4-3-19.9-7.3-28.4-12.8c-8.5-5.5-15.8-12.3-22-20.3
		c-6.1-8-10.6-17.1-13.5-27.2l55.1-16.9c2.6,8.9,7.6,16.2,14.9,22c7.3,5.8,16,8.6,26.1,8.6c10.3,0,19.3-3.1,26.8-9.4
		c7.6-6.2,11.3-15.5,11.3-27.7c0-7.4-1.6-13.7-4.7-18.7c-3.1-5-7.1-9.1-12.1-12.1c-4.9-3-10.5-5.1-16.7-6.3
		c-6.2-1.2-12.5-1.8-18.7-1.8c-9.1,0-19.5,1-31.1,3.1c-11.6,2-22,4.7-31.1,8.1L124,68.4h156.2v51.8H177.7l-2.2,40.3
		c3.8-1,8.1-1.6,12.8-2c4.7-0.4,8.9-0.5,12.8-0.5c12.7,0,24.7,1.7,36,5c11.3,3.4,21.1,8.5,29.3,15.3c8.3,6.8,14.8,15.3,19.6,25.4
		C290.8,213.9,293.2,225.6,293.2,239.1z"/>
</g>
<polygon class="st2" points="0,339 0,378.9 199.8,471.2 400,378.9 400,339 199.8,431.3 "/>
</svg>
