<?xml version="1.0" encoding="utf-8"?>
<!-- Generator: Adobe Illustrator 27.7.0, SVG Export Plug-In . SVG Version: 6.00 Build 0)  -->
<svg version="1.1" id="_레이어_1" xmlns="http://www.w3.org/2000/svg" xmlns:xlink="http://www.w3.org/1999/xlink" x="0px"
	 y="0px" viewBox="0 0 400 512" style="enable-background:new 0 0 400 512;" xml:space="preserve">
<style type="text/css">
	.st0{fill:#96CC00;}
	.st1{enable-background:new    ;}
	.st2{fill:#FFFFFF;}
</style>
<polygon class="st0" points="0,0 0,419.7 199.8,512 400,419.7 400,0 "/>
<g class="st1">
	<path class="st2" d="M293.6,249.3c0,13.9-2.8,25.9-8.5,36.1c-5.6,10.2-13,18.6-22.1,25.2c-9.1,6.6-19.4,11.5-30.8,14.7
		c-11.4,3.2-23,4.9-34.7,4.9c-11.5,0-22.7-1.3-33.7-4c-10.9-2.6-20.9-6.7-29.9-12.1c-9-5.4-16.9-12.4-23.6-20.9
		c-6.7-8.5-11.8-18.8-15.1-30.8l56.2-14.8c2.4,8.4,7.3,15.8,14.8,22.1c7.4,6.4,16.9,9.5,28.4,9.5c4.3,0,8.7-0.6,13.1-1.8
		c4.4-1.2,8.4-3.1,11.9-5.6c3.5-2.5,6.4-5.8,8.6-9.9c2.3-4.1,3.4-9.1,3.4-15.1c0-6.5-1.5-11.9-4.5-16.2c-3-4.3-7-7.7-11.9-10.3
		c-4.9-2.5-10.5-4.3-16.7-5.4c-6.2-1.1-12.5-1.6-18.7-1.6h-16.2v-43.9h17.6c5.8,0,11.3-0.4,16.6-1.3c5.3-0.8,10-2.4,14.2-4.7
		c4.2-2.3,7.6-5.4,10.1-9.2c2.5-3.9,3.8-8.9,3.8-15.2c0-9.2-3.2-16.2-9.7-21c-6.5-4.8-13.9-7.2-22.3-7.2c-8.6,0-16.1,2.6-22.5,7.7
		c-6.4,5.2-10.5,12.1-12.4,20.7l-56.2-13c3.1-10.8,7.8-20.2,14-28.3c6.2-8,13.6-14.8,22.1-20.2c8.5-5.4,17.8-9.5,27.9-12.2
		c10.1-2.8,20.4-4.1,31-4.1c11.3,0,22.3,1.4,32.9,4.3c10.7,2.9,20.2,7.3,28.6,13.3c8.4,6,15.2,13.5,20.3,22.5
		c5.2,9,7.7,19.6,7.7,31.9c0,14.2-4,26.1-12.1,35.9c-8,9.7-18.3,16.3-30.8,19.6v1.1c7.2,1.7,13.8,4.4,19.8,8.1
		c6,3.7,11.2,8.2,15.5,13.3c4.3,5.2,7.7,10.9,10.1,17.3C292.4,235.3,293.6,242.1,293.6,249.3z"/>
</g>
<polygon class="st2" points="0,339 0,378.9 199.8,471.2 400,378.9 400,339 199.8,431.3 "/>
</svg>
