<?xml version="1.0" encoding="utf-8"?>
<!-- Generator: Adobe Illustrator 27.7.0, SVG Export Plug-In . SVG Version: 6.00 Build 0)  -->
<svg version="1.1" id="_레이어_1" xmlns="http://www.w3.org/2000/svg" xmlns:xlink="http://www.w3.org/1999/xlink" x="0px"
	 y="0px" viewBox="0 0 400 512" style="enable-background:new 0 0 400 512;" xml:space="preserve">
<style type="text/css">
	.st0{fill:#96CC00;}
	.st1{enable-background:new    ;}
	.st2{fill:#FFFFFF;}
</style>
<polygon class="st0" points="0,0 0,419.7 199.8,512 400,419.7 400,0 "/>
<g class="st1">
	<path class="st2" d="M108.2,323.3V273l99.4-89.8c6.2-6,11.3-12.1,15.1-18.3c3.8-6.2,5.8-13.2,5.8-20.8c0-9.1-2.9-16.5-8.6-22.1
		c-5.8-5.6-13.4-8.4-23-8.4c-10.1,0-18.3,3.5-24.7,10.6c-6.4,7.1-10.1,16.4-11.3,27.9l-58-7.9c1.4-13,5-24.5,10.6-34.6
		c5.6-10.1,12.8-18.7,21.4-25.9c8.6-7.1,18.5-12.6,29.7-16.3s23-5.6,35.5-5.6c11.8,0,23.2,1.6,34.2,4.7c11,3.1,20.9,7.9,29.5,14.4
		s15.5,14.6,20.7,24.5c5.2,9.8,7.7,21.4,7.7,34.6c0,9.1-1.2,17.3-3.6,24.7c-2.4,7.3-5.7,14.1-9.9,20.3c-4.2,6.2-9,12.1-14.4,17.5
		s-11,10.7-16.7,16l-59,52.6h104v52.6H108.2z"/>
</g>
<polygon class="st2" points="0,339 0,378.9 199.8,471.2 400,378.9 400,339 199.8,431.3 "/>
</svg>
